<svg width="21" height="20" viewBox="0 0 21 20" fill="none" xmlns="http://www.w3.org/2000/svg">
<path d="M10.6699 0C11.996 0 13.2678 0.526784 14.2055 1.46447C15.1431 2.40215 15.6699 3.67392 15.6699 5C15.6699 6.32608 15.1431 7.59785 14.2055 8.53553C13.2678 9.47322 11.996 10 10.6699 10C9.34384 10 8.07207 9.47322 7.13439 8.53553C6.19671 7.59785 5.66992 6.32608 5.66992 5C5.66992 3.67392 6.19671 2.40215 7.13439 1.46447C8.07207 0.526784 9.34384 0 10.6699 0ZM10.6699 12.5C16.1949 12.5 20.6699 14.7375 20.6699 17.5V20H0.669922V17.5C0.669922 14.7375 5.14492 12.5 10.6699 12.5Z" fill="white"/>
</svg>
